<?xml version="1.0" encoding="UTF-8"?><svg id="b" xmlns="http://www.w3.org/2000/svg" viewBox="0 0 117.17 110.91"><g id="c"><path d="m20.94,86.27c.04-7.97-5.59-14.45-13.12-15.5-4.4-.62-6.47-2.59-7.17-6.98-1.02-6.41-.82-12.8.44-19.16.67-3.42,3.07-5.53,6.65-5.99,8.13-1.06,13.81-7.66,13.47-15.82-.07-1.63-.51-3.29-1.03-4.86-1.15-3.51-.34-6.51,2.57-8.79,4.68-3.66,9.81-6.51,15.36-8.6,3.22-1.21,6.21-.44,8.47,2.17,6.79,7.84,17.28,7.83,24.06-.02,2.25-2.6,5.25-3.37,8.48-2.15,5.98,2.26,11.45,5.41,16.4,9.46,2.92,2.39,3.73,5.19,2.49,8.79-3.04,8.84,1.98,18.02,11.03,20.14.67.16,1.37.21,2.03.41,2.76.84,4.55,2.68,5.11,5.51,1.36,6.82,1.31,13.65,0,20.48-.61,3.14-2.98,5.39-6.2,5.91-10.29,1.65-15.81,11.13-12.19,20.94,1.2,3.26.38,6.29-2.33,8.53-4.45,3.67-9.35,6.6-14.67,8.84-3.72,1.57-6.77.81-9.32-2.34-6.08-7.51-16.94-7.95-23.31-.94-.49.54-.92,1.14-1.37,1.71-2.08,2.65-5.23,3.57-8.4,2.4-6.2-2.29-11.83-5.56-16.9-9.78-2.48-2.06-3.19-5.21-2-8.28.47-1.21.87-2.45,1.18-3.7.22-.9.23-1.85.29-2.38Zm18.13-30.92c0,10.88,8.72,19.61,19.59,19.61,10.74,0,19.47-8.8,19.46-19.62,0-10.63-8.78-19.42-19.41-19.43-10.84-.01-19.64,8.7-19.65,19.43Z"/></g></svg>